Coordinates
version=1
nRows=9
nColumns=24
inDegrees=yes

Units are S.I. units (second, meters, Newtons, ...)
If the header above contains a line with 'inDegrees', this indicates whether rotational values are in degrees (yes) or radians (no).

endheader
time	pelvis_tilt	pelvis_list	pelvis_rotation	pelvis_tx	pelvis_ty	pelvis_tz	hip_flexion_r	hip_adduction_r	hip_rotation_r	knee_angle_r	ankle_angle_r	subtalar_angle_r	mtp_angle_r	hip_flexion_l	hip_adduction_l	hip_rotation_l	knee_angle_l	ankle_angle_l	subtalar_angle_l	mtp_angle_l	lumbar_extension	lumbar_bending	lumbar_rotation
      1.56666667	      4.37014427	     -5.03947331	     -8.09142593	      0.47803011	      0.72533487	      0.30137202	    -10.93024021	      7.39396348	     -4.14831258	    -18.28876856	     26.05534532	      4.26920754	      0.00000000	     23.66411135	    -10.84622782	    -19.48784850	    -16.74589788	      5.15282724	     -8.58766884	      0.00000000	      0.00000000	      0.00000000	      0.00000000
      1.57333333	      4.35307703	     -5.02664281	     -8.17842874	      0.48603141	      0.72420984	      0.30072782	    -11.24344854	      7.14594955	     -4.17651239	    -18.94408306	     26.20401201	      4.46655506	      0.00000000	     23.21566773	    -10.40869655	    -20.18257312	    -14.41122422	      5.51708034	     -7.20840612	      0.00000000	      0.00000000	      0.00000000	      0.00000000
      1.58000000	      4.22691539	     -4.95654520	     -8.35104205	      0.49409808	      0.72301843	      0.30013595	    -11.37059098	      6.83454857	     -4.05240808	    -19.71869328	     26.25926237	      4.52430653	      0.00000000	     22.88809430	     -9.92107583	    -20.76026032	    -12.34503851	      5.63411139	     -6.25099505	      0.00000000	      0.00000000	      0.00000000	      0.00000000
      1.58666667	      4.12423176	     -4.90247786	     -8.39551543	      0.50229338	      0.72184257	      0.29946782	    -11.49785364	      6.55809798	     -4.03456320	    -20.54778460	     26.20925273	      4.60290619	      0.00000000	     22.63911980	     -9.41215731	    -21.05973431	    -10.68622843	      5.79332174	     -5.40934912	      0.00000000	      0.00000000	      0.00000000	      0.00000000
      1.59333333	      3.99718976	     -4.97877020	     -8.37268341	      0.51041956	      0.72064752	      0.29877951	    -11.59100438	      6.45334239	     -3.94353372	    -21.40193253	     26.02854544	      4.61472226	      0.00000000	     22.53892172	     -9.04226195	    -20.95689550	     -9.50432877	      5.97193905	     -4.92126732	      0.00000000	      0.00000000	      0.00000000	      0.00000000
      1.60000000	      4.04196011	     -4.68473070	     -8.56260289	      0.51896483	      0.71980383	      0.29823313	    -11.73678808	      5.81018148	     -3.89844739	    -22.45902662	     25.88967064	      4.89754186	      0.00000000	     22.14250678	     -8.36767501	    -21.47596614	     -8.51164460	      6.04902656	     -4.08535149	      0.00000000	      0.00000000	      0.00000000	      0.00000000
      1.60666667	      4.05346408	     -4.53857339	     -8.58575452	      0.52745451	      0.71892747	      0.29766494	    -11.84256695	      5.39291298	     -3.86703160	    -23.53103097	     25.50993464	      5.08127037	      0.00000000	     21.94955016	     -7.84568360	    -21.42761114	     -8.03299415	      6.19985535	     -3.61214954	      0.00000000	      0.00000000	      0.00000000	      0.00000000
      1.61333333	      4.11371888	     -4.33367167	     -8.64524855	      0.53601229	      0.71818453	      0.29716360	    -11.91447003	      4.88382722	     -3.84109655	    -24.74127148	     25.06622751	      5.34836487	      0.00000000	     21.74733501	     -7.31418519	    -21.38111878	     -7.90684045	      6.22844506	     -3.21907680	      0.00000000	      0.00000000	      0.00000000	      0.00000000
      1.62000000	      4.22513353	     -4.22066335	     -8.64176674	      0.54456072	      0.71753949	      0.29677164	    -12.01111093	      4.51657535	     -3.74676352	    -26.00006077	     24.41933972	      5.42661768	      0.00000000	     21.59301126	     -6.91604705	    -21.05640234	     -8.19363961	      6.21547622	     -3.06764731	      0.00000000	      0.00000000	      0.00000000	      0.00000000
